<svg height="512" viewBox="0 0 58 58" width="512" xmlns="http://www.w3.org/2000/svg"><g id="Page-1" fill="none" fill-rule="evenodd"><g id="022---Pumpkin" fill-rule="nonzero"><path id="Shape" d="m24.75 10.98c.0242682-1.4194295.4583604-2.80157908 1.25-3.98.9961334-1.23933464 1.1715546-2.94812543.448-4.364-.2304489-.42312192-.1198878-.95093497.261-1.246.8357699-.69597534 1.8358905-1.1662558 2.905-1.366.2573138-.02423126.5131948.0590115.707.23 1.21 1.014 5.331 5 3.409 10.966v.01z" fill="#24ae5f"/><path id="Shape" d="m34.91 11.94c1.6254646-.6199789 3.3503142-.9385169 5.09-.94 9.94 0 18 10.3 18 23s-8.06 23-18 23c-1.7396858-.0014831-3.4645354-.3200211-5.09-.94h-11.82c-1.6254646.6199789-3.3503142.9385169-5.09.94-9.94 0-18-10.3-18-23s8.06-23 18-23c1.7396858.0014831 3.4645354.3200211 5.09.94z" fill="#e57e25"/><ellipse id="Oval" cx="29" cy="34" fill="#f29c1f" rx="15" ry="24"/><path id="Shape" d="m22.579 19c-.3762651-.0019538-.719584-.2149527-.8884479-.5512029s-.1346854-.7388272.0884479-1.0417971c2.091-2.842 4.657-4.407 7.221-4.407.5522847 0 1 .4477153 1 1s-.4477153 1-1 1c-1.913 0-3.907 1.276-5.615 3.593-.1886386.2561423-.487891.4072536-.806.407z" fill="#fac176"/><g fill="#802f34"><path id="Shape" d="m17.77 29.47c.1547386.4951727.2323141 1.0112181.23 1.53 0 2.21-1.34 4-3 4s-3-1.79-3-4c-.0464379-1.2814755.4684713-2.5194487 1.41-3.39z"/><path id="Shape" d="m44.59 27.61c.9415287.8705513 1.4564379 2.1085245 1.41 3.39 0 2.21-1.34 4-3 4s-3-1.79-3-4c-.0023141-.5187819.0752614-1.0348273.23-1.53z"/><path id="Shape" d="m28.2 33.067-1 1.333c-.2272632.3030176-.2638192.7084296-.0944272 1.0472136s.5156551.5527864.8944272.5527864h2c.3787721 0 .7250352-.2140024.8944272-.5527864s.132836-.744196-.0944272-1.0472136l-1-1.333c-.1888544-.2518058-.4852427-.4-.8-.4s-.6111456.1481942-.8.4z"/><path id="Shape" d="m22.465 40h-.465c-.5522847 0-1 .4477153-1 1v1.728c-.0553669 4.2834194 3.203313 7.8840622 7.471 8.255 2.2088507.1463806 4.3796158-.6290422 5.9958119-2.1417744 1.6161961-1.5127323 2.533329-3.6275299 2.5331881-5.8412256v-2c0-.5522847-.4477153-1-1-1h-.465c-.3342785-.00005-.6464754.1669303-.832.445l-.871 1.307c-.1854732.2781551-.4976789.4452244-.832.4452244s-.6465268-.1670693-.832-.4452244l-.868-1.307c-.1861134-.2789559-.4996591-.4460551-.835-.445h-2.93c-.3342785-.00005-.6464754.1669303-.832.445l-.871 1.307c-.1854732.2781551-.4976789.4452244-.832.4452244s-.6465268-.1670693-.832-.4452244l-.868-1.307c-.1861134-.2789559-.4996591-.4460551-.835-.445z"/></g><path id="Shape" d="m19 31c-.135464-.0000349-.2695086-.0275923-.394-.081l-7-3c-.4993742-.2225705-.7274312-.8049312-.5119982-1.3074258.2154329-.5024946.7944852-.7388258 1.2999982-.5305742l7 3c.4362179.1871405.6807739.6551532.5853092 1.12012-.0954648.4649668-.5046434.7987578-.9793092.79888z" fill="#d25627"/><path id="Shape" d="m39 31c-.4746658-.0001222-.8838444-.3339132-.9793092-.79888-.0954647-.4649668.1490913-.9329795.5853092-1.12012l7-3c.329423-.1468235.7123845-.1048848 1.0022231.1097549.2898387.2146397.441643.5687214.3972771.9266436-.044366.3579222-.2780276.6642238-.6115002.8016015l-7 3c-.1244914.0534077-.258536.0809651-.394.081z" fill="#d25627"/></g></g></svg>